# xmcd
# 
# Track frame offsets:
#     150
#     15769
#     29918
#     49735
#     64728
#     76588
#     94205
#     114099
#     134845
#     150122
# 
# Disc length: 2205
# 
# Revision: 3
# Processed by: cddbd v1.5.2PL0 Copyright (c) Steve Scherf et al.
# Submitted via: fre:ac v1.0.31
# 
DISCID=6f089b0a
DTITLE=Kate Pierson - Guitars And Microphones
DYEAR=2015
DGENRE=Rock/Pop
TTITLE0=Throw Down The Roses
TTITLE1=Mister Sister
TTITLE2=Guitars And Microphones
TTITLE3=Crush Me With Your Love
TTITLE4=Bottoms Up
TTITLE5=Bring Your Arms
TTITLE6=Wolves
TTITLE7=Matrix
TTITLE8=Time Wave Zero
TTITLE9=Pulls You Under
EXTD=
EXTT0=
EXTT1=
EXTT2=
EXTT3=
EXTT4=
EXTT5=
EXTT6=
EXTT7=
EXTT8=
EXTT9=
PLAYORDER=
